<svg width="703" height="361" viewBox="0 0 703 361" fill="none" xmlns="http://www.w3.org/2000/svg">
<g filter="url(#filter0_f_246_36)">
<ellipse cx="351.5" cy="283.5" rx="304.5" ry="30.5" fill="#FF4900"/>
</g>
<g clip-path="url(#clip0_246_36)">
<path d="M278.729 167.966C271.615 162.965 266.525 155.584 264.379 147.157C262.234 138.73 263.174 129.813 267.031 122.019C270.887 114.225 277.405 108.068 285.406 104.661C293.406 101.254 302.362 100.823 310.653 103.444C318.945 106.065 326.025 111.567 330.613 118.954C335.201 126.341 336.995 135.126 335.67 143.72C334.345 152.314 329.988 160.151 323.388 165.813C316.788 171.475 308.38 174.589 299.684 174.591C299.238 174.591 298.754 174.591 298.344 174.591" stroke="black" stroke-miterlimit="10"/>
<path d="M292.53 131.027C293.428 130.73 293.764 129.303 293.28 127.839C292.796 126.375 291.676 125.429 290.778 125.726C289.88 126.023 289.545 127.45 290.028 128.914C290.512 130.378 291.632 131.324 292.53 131.027Z" fill="black"/>
<path d="M307.902 124.46C308.8 124.163 309.136 122.736 308.652 121.272C308.168 119.808 307.048 118.862 306.15 119.159C305.252 119.455 304.917 120.883 305.4 122.347C305.884 123.81 307.004 124.757 307.902 124.46Z" fill="black"/>
<path d="M312.405 133.788C312.873 135.741 312.548 137.8 311.502 139.514C310.456 141.229 308.773 142.459 306.821 142.935C305.471 143.222 304.067 143.127 302.768 142.662C301.468 142.197 300.323 141.38 299.461 140.302" stroke="black" stroke-miterlimit="10"/>
<path d="M196.88 268.044L286.992 193.016L279.073 173C278.323 171.116 278.287 169.022 278.973 167.113C279.658 165.204 281.018 163.611 282.795 162.634V162.634C283.778 162.102 284.859 161.774 285.972 161.67C287.085 161.565 288.208 161.687 289.273 162.026C290.338 162.366 291.324 162.917 292.171 163.647C293.018 164.376 293.709 165.269 294.203 166.272L303.76 185.692L334.597 154.362C335.629 153.313 337.027 152.706 338.497 152.668C339.967 152.63 341.394 153.163 342.479 154.157V154.157C343.045 154.675 343.5 155.302 343.817 156.001C344.134 156.7 344.306 157.456 344.322 158.223C344.339 158.99 344.2 159.752 343.913 160.464C343.627 161.176 343.199 161.822 342.656 162.364L316.796 188.14" stroke="black" stroke-miterlimit="10"/>
<path d="M316.89 188.186L322.668 182.315C323.767 181.205 325.252 180.563 326.813 180.523C328.373 180.483 329.889 181.048 331.043 182.101V182.101C331.644 182.652 332.126 183.319 332.462 184.061C332.798 184.804 332.979 185.607 332.996 186.422C333.012 187.237 332.864 188.047 332.558 188.803C332.253 189.559 331.798 190.245 331.22 190.82L326.567 195.472" stroke="black" stroke-miterlimit="10"/>
<path d="M326.595 195.491L330.019 192.001C331.117 190.889 332.602 190.246 334.164 190.206C335.725 190.166 337.242 190.733 338.394 191.787V191.787C338.997 192.337 339.481 193.003 339.819 193.746C340.156 194.488 340.339 195.292 340.356 196.107C340.374 196.922 340.225 197.733 339.92 198.489C339.615 199.245 339.159 199.931 338.58 200.506L336.068 203.009" stroke="black" stroke-miterlimit="10"/>
<path d="M407.681 175.727C455.221 189.415 430.6 248.763 403.745 293.484" stroke="black" stroke-miterlimit="10"/>
<path d="M327.051 177.96C340.44 175.367 353.999 173.747 367.622 173.112" stroke="black" stroke-miterlimit="10"/>
<path d="M336.068 203.019L337.371 201.697C338.465 200.581 339.952 199.935 341.515 199.895C343.078 199.855 344.595 200.425 345.745 201.483C346.346 202.033 346.83 202.699 347.166 203.44C347.503 204.182 347.685 204.984 347.702 205.798C347.72 206.613 347.572 207.422 347.267 208.177C346.963 208.933 346.508 209.618 345.931 210.193L235.646 289.753C224.396 297.995 210.558 301.918 196.657 300.807C183.769 299.663 171.449 294.294 173.738 277.451C176.883 254.281 220.264 212.408 285.522 189.275" stroke="black" stroke-miterlimit="10"/>
<path d="M321.961 293.549C321.961 293.549 375.689 293.437 403.782 293.549" stroke="black" stroke-miterlimit="10"/>
<path d="M375.103 293.428C375.103 293.428 362.913 261.232 320.835 259.93C278.757 258.627 262.268 284.951 258.36 290.814C253.707 297.802 255.317 302.687 259.058 304.604C264.073 307.163 268.102 300.826 271.973 295.876L285.764 278.252" stroke="black" stroke-miterlimit="10"/>
<path d="M283.633 280.987L270.335 298.025C269.386 299.2 268.908 300.686 268.995 302.194C269.135 304.055 270.168 306.111 274.048 306.111C279.631 306.111 287.262 296.49 290.351 292.693L301.275 279.284" stroke="black" stroke-miterlimit="10"/>
<path d="M301.276 279.284L287.513 296.034C286.232 297.547 285.417 299.399 285.168 301.366C285.146 301.648 285.146 301.931 285.168 302.213C285.317 304.074 286.35 306.13 290.221 306.13C295.804 306.13 303.444 296.508 306.533 292.712L317.457 279.303" stroke="black" stroke-miterlimit="10"/>
<path d="M317.429 279.284L303.658 296.034C302.376 297.546 301.564 299.399 301.322 301.366C301.295 301.647 301.295 301.931 301.322 302.213C301.462 304.074 302.495 306.13 306.375 306.13C311.958 306.13 319.588 296.508 322.678 292.712L333.611 279.303" stroke="black" stroke-miterlimit="10"/>
<path d="M489.902 242.761C495.96 245.032 499.905 248.707 499.905 252.857C499.905 259.743 489.046 265.326 475.646 265.326C462.247 265.326 451.388 259.743 451.388 252.857C451.388 245.972 462.247 240.379 475.646 240.379C477.089 240.379 478.494 240.444 479.871 240.565" stroke="black" stroke-miterlimit="10"/>
<path d="M451.378 252.848L459.678 319.864H491.604L499.895 252.848" stroke="black" stroke-miterlimit="10"/>
<path d="M466.099 288.571L492.47 196.607H506.484L473.441 288.571" stroke="black" stroke-miterlimit="10"/>
<path d="M483.053 288.571L471.961 319.446" stroke="black" stroke-miterlimit="10"/>
<path d="M462.786 319.865L471.756 288.571" stroke="black" stroke-miterlimit="10"/>
<path d="M455.798 288.571H495.55" stroke="black" stroke-miterlimit="10"/>
<path d="M79.5317 117.895H194.833V219.992H59.6836V202.73" stroke="black" stroke-miterlimit="10"/>
<path d="M79.5319 95.1804H40.3755V202.516H79.5319V95.1804Z" stroke="black" stroke-miterlimit="10"/>
<path d="M53.4028 95.1804H40.3755V108.208H53.4028V95.1804Z" stroke="black" stroke-miterlimit="10"/>
<path d="M53.412 108.208H79.541V95.1804H53.412V108.208Z" stroke="black" stroke-miterlimit="10"/>
<path d="M43.5391 104.662L50.2388 97.9626" stroke="black" stroke-miterlimit="10"/>
<path d="M50.2388 104.662L43.5391 97.9626" stroke="black" stroke-miterlimit="10"/>
<path d="M592.055 155.711L655.535 156.018" stroke="black" stroke-miterlimit="10"/>
<path d="M655.535 79.0452H592.045V211.366H655.535V79.0452Z" stroke="black" stroke-miterlimit="10"/>
<path d="M613.168 79.0452H592.045V100.168H613.168V79.0452Z" stroke="black" stroke-miterlimit="10"/>
<path d="M613.168 100.159H655.535V79.0358H613.168V100.159Z" stroke="black" stroke-miterlimit="10"/>
<path d="M597.172 94.4266L608.032 83.5581" stroke="black" stroke-miterlimit="10"/>
<path d="M608.032 94.4266L597.172 83.5581" stroke="black" stroke-miterlimit="10"/>
<path d="M644.415 83.4929L649.887 88.9644L644.434 94.4173" stroke="black" stroke-miterlimit="10"/>
<path d="M637.976 83.4929L643.448 88.9644L637.995 94.4173" stroke="black" stroke-miterlimit="10"/>
<path d="M616.006 137.938C613.173 137.734 610.449 136.759 608.13 135.118C605.811 133.477 603.985 131.233 602.851 128.629C601.716 126.024 601.315 123.159 601.693 120.343C602.07 117.528 603.21 114.869 604.99 112.655C606.771 110.441 609.123 108.757 611.792 107.784C614.461 106.811 617.345 106.587 620.132 107.137C622.92 107.686 625.503 108.987 627.604 110.9C629.704 112.813 631.241 115.264 632.049 117.988" stroke="black" stroke-miterlimit="10"/>
<path d="M632.048 117.988C632.048 118.136 632.132 118.285 632.179 118.434" stroke="black" stroke-miterlimit="10"/>
<path d="M632.384 119.346C632.59 120.357 632.693 121.386 632.691 122.417C632.688 126.544 631.047 130.501 628.128 133.419C625.209 136.336 621.25 137.975 617.123 137.975H616.946" stroke="black" stroke-miterlimit="10" stroke-dasharray="1.01 1.01"/>
<path d="M616.472 137.966H616.006" stroke="black" stroke-miterlimit="10"/>
<path d="M630.923 149.114C639.52 149.114 646.49 142.144 646.49 133.546C646.49 124.948 639.52 117.978 630.923 117.978C622.325 117.978 615.355 124.948 615.355 133.546C615.355 142.144 622.325 149.114 630.923 149.114Z" stroke="black" stroke-miterlimit="10"/>
<path d="M602.607 168.245V200.376" stroke="black" stroke-miterlimit="10"/>
<path d="M631.9 171.548H606.115V181.942H631.9V171.548Z" stroke="black" stroke-miterlimit="10"/>
<path d="M646.49 185.227H606.115V195.621H646.49V185.227Z" stroke="black" stroke-miterlimit="10"/>
<path d="M592.045 143.847H407.681V27.6802H627.703V79.0451" stroke="black" stroke-miterlimit="10"/>
<path d="M504.52 3.1145H407.681V27.6896H504.52V3.1145Z" stroke="black" stroke-miterlimit="10"/>
<path d="M414.018 20.8316L424.886 9.96313" stroke="black" stroke-miterlimit="10"/>
<path d="M424.886 20.8316L414.018 9.96313" stroke="black" stroke-miterlimit="10"/>
<path d="M433.661 15.3975H494.75" stroke="black" stroke-miterlimit="10"/>
<path d="M407.681 3.1145H367.612V221.229H407.681V3.1145Z" stroke="black" stroke-miterlimit="10"/>
<path d="M376.108 27.2244H399.185" stroke="black" stroke-miterlimit="10"/>
<path d="M367.612 14.3179H407.681" stroke="black" stroke-miterlimit="10"/>
<path d="M371.893 11.6287L374.759 8.76271L371.893 5.90601" stroke="black" stroke-miterlimit="10"/>
<path d="M375.708 11.6287L378.565 8.76271L375.708 5.90601" stroke="black" stroke-miterlimit="10"/>
<path d="M117.134 325.494C130.65 325.494 141.607 314.537 141.607 301.021C141.607 287.505 130.65 276.549 117.134 276.549C103.618 276.549 92.6616 287.505 92.6616 301.021C92.6616 314.537 103.618 325.494 117.134 325.494Z" stroke="black" stroke-miterlimit="10"/>
<path d="M127.184 165.528C125.258 172.987 121.485 179.842 116.213 185.46C114.836 186.921 112.612 188.354 111.03 187.125C110.006 186.344 109.913 184.874 109.932 183.589C110.04 176.084 111.192 168.63 113.356 161.443C116.278 151.728 121.731 141.902 131.036 137.901C135.745 135.882 141.877 135.854 145.32 139.641C147.357 141.893 148.065 145.019 148.483 148.016C150.242 160.643 147.804 174.48 139.104 183.813C135.847 187.302 131.66 190.122 127.007 190.959C122.354 191.797 117.078 190.392 113.98 186.744C109.718 181.682 110.583 174.163 112.119 167.743C114.464 158.214 118.213 148.434 125.937 142.386C130.45 138.85 135.996 136.868 141.588 135.556C147.181 134.244 153.238 133.574 158.533 135.807C165.047 138.543 169.039 145.047 171.839 151.496C176.047 161.212 178.42 171.623 178.837 182.203C179.135 186.076 178.722 189.971 177.618 193.695C176.371 197.371 173.896 200.748 170.323 202.312C168.098 203.181 165.722 203.599 163.335 203.54C154.606 203.707 145.99 201.586 137.699 198.841C121.815 193.593 106.228 185.655 95.6948 172.665C92.2426 168.394 89.265 162.829 90.9678 157.609C92.4474 153.04 97.0627 150.258 101.576 148.611C109.95 145.531 119.135 144.973 128.068 145.68C132.413 146.024 136.87 146.704 140.593 148.993C145.31 151.896 148.204 157.004 150.316 162.122C152.429 167.24 153.946 172.674 153.266 178.109C152.587 183.543 149.284 188.912 144.138 190.773C141.709 191.521 139.164 191.818 136.629 191.648C129.867 191.507 123.146 190.57 116.604 188.856C114.896 188.554 113.307 187.78 112.016 186.623C109.82 184.287 110.406 180.509 111.635 177.55C115.664 167.836 124.606 161.117 133.642 155.72C139.374 152.296 145.487 149.141 152.112 148.323C153.462 148.155 154.969 148.127 156.011 148.993C157.053 149.858 157.323 151.44 157.398 152.845C158.161 166.719 151.387 179.83 144.026 191.601C142.705 193.714 141.235 195.919 138.992 197.017C135.8 198.571 131.976 197.454 128.756 195.975C125.174 194.337 121.694 192.197 119.358 189.033C117.022 185.869 115.999 181.496 117.581 177.867C118.725 175.615 120.425 173.693 122.522 172.284C126.768 169.277 131.341 166.761 136.154 164.784C145.983 160.437 156.1 156.774 166.433 153.822" stroke="black" stroke-miterlimit="10"/>
<path d="M462.786 103.341H454.402V111.725H462.786V103.341Z" fill="black"/>
<path d="M118.679 77.6587H110.295V86.0427H118.679V77.6587Z" fill="black"/>
<path d="M248.198 63.4867C319.309 60.0251 403.242 66.9482 458.599 107.538" stroke="black" stroke-miterlimit="10"/>
<path d="M114.492 81.8553C114.492 81.8553 166.992 68.921 234.157 64.3149" stroke="black" stroke-miterlimit="10"/>
<path d="M547.371 173.949L325.236 7.76709" stroke="black" stroke-miterlimit="10"/>
<path d="M322.054 9.36762C324.253 9.36762 326.037 7.58453 326.037 5.38498C326.037 3.18543 324.253 1.40234 322.054 1.40234C319.854 1.40234 318.071 3.18543 318.071 5.38498C318.071 7.58453 319.854 9.36762 322.054 9.36762Z" stroke="black" stroke-miterlimit="10"/>
<path d="M550.553 180.314C552.753 180.314 554.536 178.531 554.536 176.331C554.536 174.132 552.753 172.349 550.553 172.349C548.354 172.349 546.571 174.132 546.571 176.331C546.571 178.531 548.354 180.314 550.553 180.314Z" stroke="black" stroke-miterlimit="10"/>
<path d="M116.167 52.0786C118.366 52.0786 120.149 50.2955 120.149 48.0959C120.149 45.8964 118.366 44.1133 116.167 44.1133C113.967 44.1133 112.184 45.8964 112.184 48.0959C112.184 50.2955 113.967 52.0786 116.167 52.0786Z" stroke="black" stroke-miterlimit="10"/>
<path d="M113.152 112.711C115.351 112.711 117.134 110.928 117.134 108.729C117.134 106.529 115.351 104.746 113.152 104.746C110.952 104.746 109.169 106.529 109.169 108.729C109.169 110.928 110.952 112.711 113.152 112.711Z" stroke="black" stroke-miterlimit="10"/>
<path d="M113.347 104.746L115.971 52.0601" stroke="black" stroke-miterlimit="10"/>
<path d="M54.2122 118.899C54.2122 118.899 54.3146 139.631 54.2122 139.52C54.1098 139.408 60.242 132.922 60.242 132.922H68.6167L54.2122 118.899Z" stroke="black" stroke-miterlimit="10"/>
<path d="M54.2122 153.338C54.2122 153.338 54.3146 174.07 54.2122 173.968C54.1098 173.865 60.242 167.361 60.242 167.361H68.6167L54.2122 153.338Z" fill="black" stroke="black" stroke-miterlimit="10"/>
<path d="M242.839 50.2546C243.899 51.3154 269.126 118.388 269.126 118.388L205.459 110.739L242.839 50.2546Z" fill="black"/>
<path d="M382.975 164.421C387.965 164.421 392.011 160.375 392.011 155.385C392.011 150.395 387.965 146.35 382.975 146.35C377.985 146.35 373.94 150.395 373.94 155.385C373.94 160.375 377.985 164.421 382.975 164.421Z" stroke="black" stroke-miterlimit="10"/>
<path d="M382.975 164.421C387.965 164.421 392.011 160.375 392.011 155.385C392.011 150.395 387.965 146.35 382.975 146.35C377.985 146.35 373.94 150.395 373.94 155.385C373.94 160.375 377.985 164.421 382.975 164.421Z" stroke="black" stroke-miterlimit="10"/>
<path d="M390.773 160.336L398.664 168.022C398.842 168.195 398.984 168.402 399.081 168.631C399.179 168.859 399.231 169.104 399.234 169.353C399.237 169.601 399.191 169.848 399.099 170.078C399.007 170.309 398.87 170.519 398.696 170.697C398.523 170.875 398.316 171.017 398.088 171.115C397.859 171.212 397.614 171.264 397.366 171.267C397.117 171.27 396.871 171.225 396.64 171.132C396.409 171.04 396.199 170.903 396.021 170.73L388.13 163.053L390.773 160.336Z" fill="black"/>
<path d="M372.032 179.793H403.27" stroke="black" stroke-miterlimit="10"/>
<path d="M391.322 200.069H395.351V207.56H387.907V203.521H382.957V212.491H400.348V195.146H391.369L391.322 200.069Z" fill="black"/>
<path d="M391.313 186.139H373.931V203.521H391.313V186.139Z" stroke="black" stroke-miterlimit="10"/>
<path d="M373.931 203.53L391.322 186.139" stroke="black" stroke-miterlimit="10"/>
<path d="M395.6 108.202L391.218 112.584L397.587 118.953L401.97 114.571L395.6 108.202Z" fill="black"/>
<path d="M396.598 119.951L393.956 126.074L384.102 116.229L390.224 113.586L396.598 119.951Z" fill="black"/>
<path d="M393.956 126.074L381.189 131.703L380.091 130.456L388.214 123.301L387.2 122.063L379.281 129.535L378.267 128.381L384.101 116.229L393.956 126.074Z" fill="black"/>
<path d="M374.433 109.166C374.433 109.166 380.184 110.981 377.495 116.229C374.806 121.477 370.246 128.549 378.267 130.326" stroke="black" stroke-miterlimit="10"/>
<path d="M117.134 290.581C117.134 290.581 120.158 268.072 97.5933 261.288" stroke="black" stroke-miterlimit="10"/>
<path d="M128.03 262.16C133.672 254.764 136.079 247.117 133.407 245.078C130.735 243.039 123.995 247.382 118.353 254.777C112.711 262.173 110.303 269.821 112.976 271.859C115.648 273.898 122.388 269.555 128.03 262.16Z" stroke="black" stroke-miterlimit="10"/>
</g>
<defs>
<filter id="filter0_f_246_36" x="0" y="206" width="703" height="155" filterUnits="userSpaceOnUse" color-interpolation-filters="sRGB">
<feFlood flood-opacity="0" result="BackgroundImageFix"/>
<feBlend mode="normal" in="SourceGraphic" in2="BackgroundImageFix" result="shape"/>
<feGaussianBlur stdDeviation="23.5" result="effect1_foregroundBlur_246_36"/>
</filter>
<clipPath id="clip0_246_36">
<rect width="616.09" height="325.022" fill="white" transform="translate(39.9102 0.937012)"/>
</clipPath>
</defs>
</svg>
