<svg width="473" height="588" viewBox="0 0 473 588" fill="none" xmlns="http://www.w3.org/2000/svg">
<g filter="url(#filter0_f_44_97)">
<path d="M344 192.5C344 262.364 281.768 319 205 319C128.232 319 66 262.364 66 192.5C66 122.636 128.232 66 205 66C281.768 66 344 122.636 344 192.5Z" fill="#FF4900"/>
</g>
<g clip-path="url(#clip0_44_97)">
<path d="M152.017 429.788L117.668 428.641C116.354 428.489 115.146 427.848 114.283 426.845C113.421 425.843 112.968 424.552 113.015 423.23C113.04 422.52 113.209 421.823 113.511 421.18C113.813 420.537 114.241 419.962 114.771 419.489C115.3 419.016 115.92 418.655 116.593 418.427C117.266 418.2 117.977 418.111 118.685 418.165L153.846 418.024" stroke="black" stroke-miterlimit="10"/>
<path d="M153.879 417.916L119.248 418.284C117.922 418.297 116.639 417.81 115.656 416.92C114.673 416.029 114.062 414.8 113.945 413.479V413.479C113.859 412.49 114.053 411.497 114.505 410.613C114.956 409.728 115.647 408.989 116.499 408.479" stroke="black" stroke-miterlimit="10"/>
<path d="M167.255 396.867C170.556 397.95 174.982 399.464 179.949 401.596" stroke="black" stroke-miterlimit="10"/>
<path d="M187.157 422.516C187.157 422.516 173.088 412.657 182.828 393.632L174.82 381.652C174.017 380.444 173.707 378.974 173.955 377.545C174.202 376.115 174.988 374.835 176.151 373.968C177.275 373.119 178.675 372.722 180.077 372.854C181.479 372.987 182.781 373.639 183.726 374.682C193.325 385.19 218.357 424.669 229.071 453.586L260.455 537.9C265.314 531.407 280.075 500.261 292.585 473.044C298.518 460.125 308.034 449.179 320.002 441.506C331.97 433.833 345.888 429.755 360.104 429.756H459.321" stroke="black" stroke-miterlimit="10"/>
<path d="M344.379 415.492C371.126 415.492 392.808 393.81 392.808 367.063C392.808 340.317 371.126 318.635 344.379 318.635C317.633 318.635 295.951 340.317 295.951 367.063C295.951 393.81 317.633 415.492 344.379 415.492Z" stroke="black" stroke-miterlimit="10"/>
<path d="M346.804 367.063C346.58 369.729 345.308 372.197 343.267 373.925C341.226 375.654 338.582 376.502 335.916 376.284C334.09 376.089 332.354 375.388 330.905 374.26C329.456 373.132 328.35 371.621 327.713 369.898" stroke="black" stroke-miterlimit="10"/>
<path d="M327.714 346.566C327.714 349.694 326.112 352.237 324.131 352.237C322.151 352.237 320.549 349.694 320.549 346.566" stroke="black" stroke-miterlimit="10"/>
<path d="M355.938 345.776C355.938 348.915 354.336 351.458 352.356 351.458C350.375 351.458 348.773 348.915 348.773 345.776" stroke="black" stroke-miterlimit="10"/>
<path d="M167.255 334.997H99.541V408.479H167.255V334.997Z" stroke="black" stroke-miterlimit="10"/>
<path d="M226.441 261.505H111.175V334.987H226.441V261.505Z" stroke="black" stroke-miterlimit="10"/>
<path d="M279.967 188.023H122.96V261.505H279.967V188.023Z" stroke="black" stroke-miterlimit="10"/>
<path d="M157.829 204.386L163.251 215.381L175.382 217.145L166.605 225.695L168.672 237.772L157.829 232.069L146.974 237.772L149.052 225.695L140.275 217.145L152.396 215.381L157.829 204.386Z" fill="black"/>
<path d="M200.533 204.386L205.955 215.381L218.086 217.145L209.31 225.695L211.377 237.772L200.533 232.069L189.689 237.772L191.756 225.695L182.979 217.145L195.111 215.381L200.533 204.386Z" fill="black"/>
<path d="M243.237 204.386L248.658 215.381L260.79 217.145L252.013 225.695L254.091 237.772L243.237 232.069L232.393 237.772L234.46 225.695L225.683 217.145L237.815 215.381L243.237 204.386Z" fill="black"/>
<path d="M177.006 133.198L182.427 144.194L194.559 145.958L185.782 154.507L187.849 166.584L177.006 160.881L166.151 166.584L168.229 154.507L159.452 145.958L171.573 144.194L177.006 133.198Z" fill="black"/>
<path d="M219.709 133.198L225.131 144.194L237.263 145.958L228.486 154.507L230.553 166.584L219.709 160.881L208.855 166.584L210.932 154.507L202.156 145.958L214.287 144.194L219.709 133.198Z" fill="black"/>
<path d="M262.413 133.198L267.835 144.194L279.967 145.958L271.19 154.507L273.268 166.584L262.413 160.881L251.57 166.584L253.637 154.507L244.86 145.958L256.991 144.194L262.413 133.198Z" fill="black"/>
<path d="M305.117 133.198L310.539 144.194L322.67 145.958L313.894 154.507L315.971 166.584L305.117 160.881L294.273 166.584L296.34 154.507L287.563 145.958L299.695 144.194L305.117 133.198Z" fill="black"/>
<path d="M145.903 279.664L151.325 290.659L163.456 292.423L154.68 300.973L156.747 313.05L145.903 307.347L135.048 313.05L137.126 300.973L128.35 292.423L140.481 290.659L145.903 279.664Z" fill="black"/>
<path d="M188.607 279.664L194.028 290.659L206.16 292.423L197.383 300.973L199.45 313.05L188.607 307.347L177.763 313.05L179.83 300.973L171.053 292.423L183.185 290.659L188.607 279.664Z" fill="black"/>
<path d="M133.404 355.04L138.825 366.035L150.946 367.799L142.169 376.349L144.247 388.426L133.404 382.723L122.549 388.426L124.627 376.349L115.839 367.799L127.971 366.035L133.404 355.04Z" fill="black"/>
<path d="M151.941 430.037L116.651 428.641C115.942 428.615 115.235 428.731 114.572 428.984C113.91 429.237 113.305 429.621 112.794 430.113C112.283 430.605 111.876 431.195 111.598 431.847C111.32 432.5 111.176 433.202 111.175 433.911V433.911C111.173 435.239 111.673 436.518 112.574 437.493C113.475 438.468 114.71 439.067 116.034 439.171L182.438 444.376L218.151 557.337C220.906 566.052 226.367 573.662 233.74 579.064C241.113 584.466 250.016 587.378 259.156 587.379V587.379C266.6 587.376 273.917 585.441 280.389 581.763C286.862 578.085 292.268 572.789 296.081 566.395L337.302 497.134L412.872 587.411" stroke="black" stroke-miterlimit="10"/>
<path d="M448.715 206.875H470.403V114.541H341.133H330.03H140.275V188.023H330.03V206.875H350.505" stroke="black" stroke-linecap="round" stroke-linejoin="round"/>
<path d="M448.715 218V244.222H350.505V150.947L372.788 128.664H448.715V214.158" stroke="black" stroke-linecap="round" stroke-linejoin="round"/>
<path d="M372.788 150.947H350.505L372.788 128.664V150.947Z" stroke="black" stroke-linecap="round" stroke-linejoin="round"/>
<path d="M362.42 162.288H439.873" stroke="black" stroke-linecap="round" stroke-linejoin="round"/>
<path d="M362.42 169.723H439.873" stroke="black" stroke-linecap="round" stroke-linejoin="round"/>
<path d="M362.42 177.147H439.873" stroke="black" stroke-linecap="round" stroke-linejoin="round"/>
<path d="M362.42 184.582H390.655" stroke="black" stroke-linecap="round" stroke-linejoin="round"/>
<path d="M362.42 192.016H390.655" stroke="black" stroke-linecap="round" stroke-linejoin="round"/>
<path d="M362.42 199.44H390.655" stroke="black" stroke-linecap="round" stroke-linejoin="round"/>
<path d="M362.42 206.875H390.655" stroke="black" stroke-linecap="round" stroke-linejoin="round"/>
<path d="M362.42 214.31H390.655" stroke="black" stroke-linecap="round" stroke-linejoin="round"/>
<path d="M362.42 221.734H372.787" stroke="black" stroke-linecap="round" stroke-linejoin="round"/>
<path d="M420.989 206.507L442.568 228.086V218L452.708 218.152L431.248 196.691L420.989 206.507Z" stroke="black" stroke-linecap="round" stroke-linejoin="round"/>
<path d="M419.03 194.559L397.44 216.149H407.537V226.127L428.997 204.667L419.03 194.559Z" stroke="black" stroke-linecap="round" stroke-linejoin="round"/>
<path d="M425.978 212.676C433.222 212.676 439.095 206.803 439.095 199.559C439.095 192.315 433.222 186.443 425.978 186.443C418.734 186.443 412.862 192.315 412.862 199.559C412.862 206.803 418.734 212.676 425.978 212.676Z" fill="black"/>
<path d="M425.978 208.249C430.778 208.249 434.668 204.359 434.668 199.559C434.668 194.76 430.778 190.869 425.978 190.869C421.179 190.869 417.288 194.76 417.288 199.559C417.288 204.359 421.179 208.249 425.978 208.249Z" fill="black" stroke="white" stroke-linecap="round" stroke-linejoin="round"/>
<path d="M370.677 231.225C372.486 227.928 374.785 224.925 377.495 222.318C379.224 220.458 381.44 219.119 383.891 218.455C384.018 218.411 384.152 218.396 384.285 218.411C384.418 218.426 384.546 218.471 384.659 218.541C384.751 218.645 384.82 218.767 384.859 218.9C384.898 219.033 384.908 219.173 384.887 219.31C384.879 222.919 384.12 226.486 382.657 229.785C381.878 231.463 380.72 233.162 378.945 233.681C377.171 234.201 374.865 232.816 375.168 230.987C375.35 230.407 375.663 229.878 376.084 229.44C376.504 229.003 377.021 228.669 377.593 228.465C380.288 227.109 383.237 226.327 386.25 226.171C387.067 226.05 387.9 226.215 388.609 226.636C390.081 227.718 389.389 230.023 388.555 231.658C388.265 232.374 387.795 233.003 387.192 233.486C386.88 233.713 386.497 233.817 386.114 233.779C385.731 233.741 385.375 233.564 385.114 233.281C386.12 231.484 388.458 230.835 390.525 231.116C392.532 231.554 394.469 232.264 396.282 233.227C399.608 234.666 403.154 235.53 406.769 235.781" stroke="black" stroke-linecap="round" stroke-linejoin="round"/>
<path d="M370.677 326.383L383.198 263.658L470.403 341.772L370.677 326.383Z" stroke="black" stroke-miterlimit="10"/>
</g>
<defs>
<filter id="filter0_f_44_97" x="0" y="0" width="410" height="385" filterUnits="userSpaceOnUse" color-interpolation-filters="sRGB">
<feFlood flood-opacity="0" result="BackgroundImageFix"/>
<feBlend mode="normal" in="SourceGraphic" in2="BackgroundImageFix" result="shape"/>
<feGaussianBlur stdDeviation="33" result="effect1_foregroundBlur_44_97"/>
</filter>
<clipPath id="clip0_44_97">
<rect width="373.123" height="473.92" fill="white" transform="translate(99 114)"/>
</clipPath>
</defs>
</svg>
