<svg width="616" height="357" viewBox="0 0 616 357" fill="none" xmlns="http://www.w3.org/2000/svg">
<g filter="url(#filter0_f_44_100)">
<path d="M485.195 158.589C485.195 211.583 438.044 254.543 379.881 254.543C321.717 254.543 274.566 211.583 274.566 158.589C274.566 105.596 321.717 62.6362 379.881 62.6362C438.044 62.6362 485.195 105.596 485.195 158.589Z" fill="#FF4900"/>
</g>
<g clip-path="url(#clip0_44_100)">
<path d="M506.607 99.8765V115.572C506.604 117.344 505.899 119.043 504.646 120.296C503.393 121.549 501.695 122.254 499.923 122.256H392.323L350.232 154.704L369.944 122.256H345.594C343.82 122.256 342.119 121.552 340.864 120.299C339.609 119.046 338.903 117.346 338.9 115.572V69.6725C338.903 67.899 339.609 66.1989 340.864 64.9458C342.119 63.6926 343.82 62.9887 345.594 62.9887H460.914" stroke="black" stroke-miterlimit="10"/>
<path d="M379.446 77.9682H352.579V104.835H379.446V77.9682Z" stroke="black" stroke-miterlimit="10"/>
<path d="M357.66 86.4714L366.012 99.2167L385.055 48.3109" stroke="black" stroke-miterlimit="10"/>
<path d="M400.28 77.9682H460.914" stroke="black" stroke-miterlimit="10"/>
<path d="M400.28 85.3307H460.914" stroke="black" stroke-miterlimit="10"/>
<path d="M400.28 92.6837H460.914" stroke="black" stroke-miterlimit="10"/>
<path d="M400.28 100.046H446.529" stroke="black" stroke-miterlimit="10"/>
<path d="M506.606 112.858V115.572C506.604 117.344 505.899 119.043 504.646 120.296C503.393 121.549 501.695 122.254 499.923 122.256H438.723V166.563C438.723 168.028 439.305 169.433 440.341 170.469C441.377 171.505 442.782 172.087 444.247 172.087H564.912C566.378 172.087 567.783 171.505 568.819 170.469C569.855 169.433 570.437 168.028 570.437 166.563V118.344C570.437 116.879 569.855 115.474 568.819 114.438C567.783 113.402 566.378 112.82 564.912 112.82H506.654L506.606 112.858Z" fill="black" stroke="black" stroke-miterlimit="10"/>
<path d="M479.259 127.837H452.392V154.704H479.259V127.837Z" stroke="white" stroke-miterlimit="10"/>
<path d="M500.102 127.837H549" stroke="white" stroke-miterlimit="10"/>
<path d="M500.102 135.2H536.132" stroke="white" stroke-miterlimit="10"/>
<path d="M500.102 142.553H545.521" stroke="white" stroke-miterlimit="10"/>
<path d="M500.102 149.915H549" stroke="white" stroke-miterlimit="10"/>
<path d="M506.607 99.8765V112.858" stroke="black" stroke-miterlimit="10"/>
<path d="M609.304 183.513H488.686C485.635 183.513 483.162 185.986 483.162 189.037V237.256C483.162 240.307 485.635 242.78 488.686 242.78H609.304C612.355 242.78 614.828 240.307 614.828 237.256V189.037C614.828 185.986 612.355 183.513 609.304 183.513Z" stroke="black" stroke-miterlimit="10"/>
<path d="M523.707 198.492H496.84V225.359H523.707V198.492Z" stroke="black" stroke-miterlimit="10"/>
<path d="M501.921 206.995L510.274 219.731L523.707 187.123" stroke="black" stroke-miterlimit="10"/>
<path d="M544.55 198.492H593.439" stroke="black" stroke-miterlimit="10"/>
<path d="M544.55 205.845H580.58" stroke="black" stroke-miterlimit="10"/>
<path d="M544.55 213.208H589.97" stroke="black" stroke-miterlimit="10"/>
<path d="M544.55 220.561H593.439" stroke="black" stroke-miterlimit="10"/>
<path d="M587.057 40.609H466.438C463.387 40.609 460.914 43.0823 460.914 46.1332V94.3523C460.914 97.4033 463.387 99.8765 466.438 99.8765H587.057C590.108 99.8765 592.581 97.4033 592.581 94.3523V46.1332C592.581 43.0823 590.108 40.609 587.057 40.609Z" stroke="black" stroke-miterlimit="10"/>
<path d="M501.46 55.5885H474.593V82.4555H501.46V55.5885Z" stroke="black" stroke-miterlimit="10"/>
<path d="M479.674 64.0917L488.026 76.837L501.45 44.229" stroke="black" stroke-miterlimit="10"/>
<path d="M522.293 55.5885H571.191" stroke="black" stroke-miterlimit="10"/>
<path d="M522.293 62.951H558.332" stroke="black" stroke-miterlimit="10"/>
<path d="M522.293 70.3041H567.722" stroke="black" stroke-miterlimit="10"/>
<path d="M522.293 77.6665H571.191" stroke="black" stroke-miterlimit="10"/>
<path d="M456.813 291.706C460.15 293.337 462.13 295.364 462.13 297.551C462.13 302.962 450.045 307.355 435.131 307.355C420.218 307.355 408.132 302.962 408.132 297.551C408.132 294.846 411.158 292.395 416.042 290.622" stroke="black" stroke-miterlimit="10"/>
<path d="M439.326 287.87C442.027 288.013 444.716 288.328 447.377 288.812" stroke="black" stroke-miterlimit="10"/>
<path d="M408.132 297.551L416.786 349.513C416.786 353.189 425.007 356.178 435.131 356.178C445.256 356.178 453.476 353.189 453.476 349.513L462.13 297.551" stroke="black" stroke-miterlimit="10"/>
<path d="M427.363 286.324L431.323 252.396L443.465 253.763L436.951 307.327H434.16L427.363 286.324Z" fill="black"/>
<path d="M438.997 239.688L436.97 243.044L440.175 243.403L438.997 239.688Z" fill="black"/>
<path d="M440.533 244.543L436.347 244.081L431.917 251.415L443.106 252.641L440.533 244.543Z" fill="black"/>
<path d="M421.028 305.913L410.819 274.889L422.405 271.024L434.16 307.327" stroke="black" stroke-linecap="round" stroke-linejoin="round"/>
<path d="M410.819 274.889L412.431 260.135L422.405 271.024L410.819 274.889Z" stroke="black" stroke-linecap="round" stroke-linejoin="round"/>
<path d="M411.667 267.064L417.031 265.16" stroke="black" stroke-linecap="round" stroke-linejoin="round"/>
<path d="M451.468 276.623C451.468 276.623 446.859 273.456 449.281 265.971C451.704 258.486 458.972 252.858 459.981 247.635C460.99 242.413 470.247 267.517 458.944 277.802" stroke="black" stroke-linecap="round" stroke-linejoin="round"/>
<path d="M462.536 250.445C463.386 255.258 462.586 260.218 460.264 264.519C459.114 266.489 457.568 268.29 456.625 270.317C455.75 272.532 455.222 274.869 455.06 277.245" stroke="black" stroke-linecap="round" stroke-linejoin="round"/>
<path d="M449.422 276.312C449.724 276.312 460.16 278.198 460.16 278.198L455.616 296.599L446.434 294.525L449.422 276.312Z" stroke="black" stroke-linecap="round" stroke-linejoin="round"/>
<path d="M446.434 294.506L444.379 306.761" stroke="black" stroke-linecap="round" stroke-linejoin="round"/>
<path d="M455.607 296.58L453.778 304.64" stroke="black" stroke-linecap="round" stroke-linejoin="round"/>
<path d="M40.9507 148.737L18.6087 152.564L0.471191 46.878L96.8339 30.343L106.054 84.0675" stroke="black" stroke-linecap="round" stroke-linejoin="round"/>
<path d="M51.952 163.697L37.8115 159.625L63.1419 71.6993L143.309 94.7954L121.363 170.956L106.214 179.327L64.3485 167.27" stroke="black" stroke-linecap="round" stroke-linejoin="round"/>
<path d="M109.608 167.562L121.363 170.956L106.214 179.327L109.608 167.562Z" stroke="black" stroke-linecap="round" stroke-linejoin="round"/>
<path d="M193.395 70.2475L167.489 70.2098L167.527 34.0196L205.98 34.0667L205.951 59.4913L193.395 70.2475Z" stroke="black" stroke-linecap="round" stroke-linejoin="round"/>
<path d="M193.404 59.4724L205.952 59.4913L193.395 70.2381L193.404 59.4724Z" stroke="black" stroke-linecap="round" stroke-linejoin="round"/>
<path d="M574.198 315.736L550.225 325.578L536.481 292.102L572.04 277.491L581.702 301.011L574.198 315.736Z" stroke="black" stroke-linecap="round" stroke-linejoin="round"/>
<path d="M570.107 305.772L581.702 301.011L574.189 315.736L570.107 305.772Z" stroke="black" stroke-linecap="round" stroke-linejoin="round"/>
<path d="M210.665 185.361C233.766 185.361 252.493 166.634 252.493 143.533C252.493 120.432 233.766 101.705 210.665 101.705C187.564 101.705 168.837 120.432 168.837 143.533C168.837 166.634 187.564 185.361 210.665 185.361Z" stroke="black" stroke-miterlimit="10"/>
<path d="M226.898 157.739C225.686 158.999 224.234 160.003 222.627 160.692C221.021 161.382 219.293 161.743 217.544 161.755C215.796 161.766 214.063 161.427 212.448 160.759C210.833 160.09 209.368 159.105 208.139 157.862" stroke="black" stroke-miterlimit="10"/>
<path d="M203.189 254.451L208.846 306.168C209.005 307.608 208.612 309.055 207.746 310.217C206.88 311.378 205.605 312.168 204.179 312.427V312.427C203.43 312.564 202.661 312.549 201.918 312.385C201.174 312.221 200.471 311.911 199.849 311.472C199.226 311.033 198.698 310.475 198.294 309.83C197.89 309.184 197.618 308.465 197.495 307.714L192.367 267.734" stroke="black" stroke-miterlimit="10"/>
<path d="M192.754 271.306L193.593 278.914C193.775 280.594 193.314 282.28 192.303 283.634C191.292 284.988 189.806 285.908 188.144 286.211C187.275 286.369 186.383 286.353 185.52 286.165C184.657 285.976 183.841 285.618 183.117 285.111C182.394 284.604 181.778 283.958 181.306 283.212C180.834 282.465 180.515 281.633 180.367 280.762L179.848 276.718" stroke="black" stroke-miterlimit="10"/>
<path d="M179.886 276.708L180.348 280.865C180.532 282.546 180.073 284.233 179.061 285.587C178.05 286.942 176.562 287.862 174.899 288.162V288.162C174.03 288.32 173.138 288.305 172.276 288.116C171.413 287.927 170.596 287.569 169.872 287.062C169.149 286.555 168.533 285.91 168.061 285.163C167.589 284.417 167.27 283.584 167.122 282.713L166.453 277.509" stroke="black" stroke-miterlimit="10"/>
<path d="M166.519 277.5L167.103 282.826C167.285 284.505 166.824 286.19 165.813 287.542C164.802 288.894 163.316 289.813 161.654 290.113C160.785 290.272 159.894 290.256 159.031 290.067C158.168 289.879 157.351 289.52 156.627 289.014C155.904 288.507 155.288 287.861 154.816 287.115C154.344 286.368 154.025 285.535 153.877 284.664L151.322 264.774" stroke="black" stroke-miterlimit="10"/>
<path d="M204.49 266.348C204.49 266.348 208.318 271.306 217.367 268.912C226.417 266.518 230.905 260.22 231.81 257.995C232.715 255.771 231.649 252.434 228.35 252.848C226.176 253.259 224.029 253.8 221.921 254.47C220.944 254.78 219.928 254.951 218.904 254.979C210.25 255.083 204.914 247.06 202.746 242.724C200.191 237.586 193.555 222.211 179.433 225.963C165.312 229.714 91.5547 269.572 91.5547 269.572" stroke="black" stroke-miterlimit="10"/>
<path d="M385.545 220.118L399.488 176.839H284.007L238.927 312.521H135.918L131.836 330.97H349.836L368.709 272.381" stroke="black" stroke-miterlimit="10"/>
<path d="M388.043 220.693C387.525 220.523 376.891 218.261 368.878 218.43C360.865 218.6 361.129 225.915 363.297 227.857C365.465 229.799 368.718 231.006 372.112 231.911" stroke="black" stroke-miterlimit="10"/>
<path d="M384.546 233.787C384.546 233.787 373.394 231.355 365.372 231.525C357.349 231.694 357.623 239.066 359.8 240.952C365.664 246.136 381.058 246.532 381.058 246.532" stroke="black" stroke-miterlimit="10"/>
<path d="M369.378 245.043C366.874 244.764 364.356 244.638 361.837 244.666C353.824 244.845 354.087 252.207 356.265 254.093C362.129 259.268 377.523 259.664 377.523 259.664" stroke="black" stroke-miterlimit="10"/>
<path d="M365.928 258.184C363.424 257.904 360.905 257.781 358.386 257.816C350.364 257.986 350.628 265.301 352.805 267.243C358.669 272.428 374.063 272.815 374.063 272.815" stroke="black" stroke-miterlimit="10"/>
<path d="M365.221 283.232C365.221 283.232 389.128 277.811 397.527 257.779C405.926 237.746 400.053 230.836 400.958 219.128C401.542 213.343 402.807 207.647 404.729 202.159C405.042 201.231 405.137 200.243 405.007 199.271C404.876 198.3 404.524 197.372 403.977 196.559C403.43 195.745 402.703 195.069 401.853 194.582C401.002 194.095 400.051 193.811 399.073 193.751V193.751C397.665 193.674 396.271 194.064 395.108 194.862C393.945 195.66 393.079 196.821 392.644 198.162L386.139 218.364" stroke="black" stroke-miterlimit="10"/>
<path d="M343.576 312.521H355.775" stroke="black" stroke-miterlimit="10"/>
<path d="M277.616 312.521H318.444" stroke="black" stroke-miterlimit="10"/>
<path d="M238.927 312.521H252.483" stroke="black" stroke-miterlimit="10"/>
<path d="M250.485 318.545L254.491 306.497H279.624L275.617 318.545H250.485Z" stroke="black" stroke-miterlimit="10"/>
<path d="M316.445 318.545L320.452 306.497H345.575L341.578 318.545H316.445Z" stroke="black" stroke-miterlimit="10"/>
<path d="M238.927 312.521L236.589 319.554H134.363" stroke="black" stroke-miterlimit="10"/>
<path d="M333.79 250.295C338.64 237.312 337.703 224.969 331.699 222.726C325.695 220.484 316.897 229.191 312.048 242.175C307.199 255.158 308.135 267.501 314.139 269.743C320.143 271.986 328.941 263.279 333.79 250.295Z" stroke="black" stroke-miterlimit="10"/>
<path d="M213.116 304.376L226.898 293.007" stroke="black" stroke-miterlimit="10"/>
<path d="M192.358 304.376L176.011 298.692" stroke="black" stroke-miterlimit="10"/>
<path d="M213.116 292.008L218.16 282.496" stroke="black" stroke-miterlimit="10"/>
<path d="M152.368 272.928C152.368 272.928 118.573 312.465 93.7137 327.482C64.7257 344.997 17.5624 306.497 76.4811 249.087C100.313 225.859 136.173 197.342 181.649 197.342C238.494 197.342 277.257 197.163 277.257 197.163" stroke="black" stroke-miterlimit="10"/>
<path d="M171.335 129.251C173.797 122.469 177.971 116.438 183.452 111.745C188.932 107.053 195.534 103.857 202.614 102.469C209.695 101.081 217.014 101.548 223.86 103.824C230.707 106.1 236.849 110.108 241.689 115.459L197.231 129.251L204.584 113.659L171.335 129.251Z" fill="black" stroke="black" stroke-miterlimit="10"/>
<path d="M211.979 140.133C212.033 138.255 211.145 136.705 209.995 136.671C208.845 136.638 207.868 138.134 207.814 140.013C207.759 141.891 208.648 143.441 209.798 143.475C210.948 143.508 211.924 142.012 211.979 140.133Z" fill="black"/>
<path d="M228.891 139.189C228.945 137.31 228.057 135.76 226.907 135.727C225.757 135.694 224.78 137.19 224.726 139.068C224.672 140.947 225.56 142.497 226.71 142.53C227.86 142.564 228.837 141.068 228.891 139.189Z" fill="black"/>
<path d="M538.234 296.382L521.124 297.957L508.228 285.692L506.579 262.379L544.928 259.674L546.917 287.813" stroke="black" stroke-linecap="round" stroke-linejoin="round"/>
<path d="M508.228 285.692L520.191 284.834L521.124 297.957L508.228 285.692Z" stroke="black" stroke-linecap="round" stroke-linejoin="round"/>
<path d="M294.424 43.8519L245.498 47.3022L247.591 77.0444L264.05 92.6837L298.063 89.5634L294.424 43.8519Z" stroke="black" stroke-linecap="round" stroke-linejoin="round"/>
<path d="M247.591 77.0444L262.863 75.9508L264.05 92.6837L247.591 77.0444Z" stroke="black" stroke-linecap="round" stroke-linejoin="round"/>
<path d="M452.392 127.837L479.259 154.704" stroke="white" stroke-miterlimit="10"/>
<path d="M452.392 154.704L479.259 127.837" stroke="white" stroke-miterlimit="10"/>
<path d="M68.9302 86.6033L130.328 104.835" stroke="black" stroke-miterlimit="10"/>
<path d="M66.2153 95.7192L127.623 113.951" stroke="black" stroke-miterlimit="10"/>
<path d="M63.5098 104.835L124.917 123.067" stroke="black" stroke-miterlimit="10"/>
<path d="M60.8042 113.951L122.212 132.192" stroke="black" stroke-miterlimit="10"/>
<path d="M58.0986 123.067L119.497 141.308" stroke="black" stroke-miterlimit="10"/>
<path d="M55.3838 132.192L116.791 150.424" stroke="black" stroke-miterlimit="10"/>
<path d="M177.68 48.1789L176.737 48.4429C179.306 48.1126 181.782 47.266 184.015 45.9542C184.657 45.6628 185.17 45.1463 185.457 44.5024C185.683 43.8425 185.25 42.9469 184.514 42.9846C181.173 43.1342 177.948 44.2582 175.238 46.2181C174.559 46.7083 173.843 47.3965 173.928 48.2355C174.05 49.5082 175.738 49.8569 177.02 49.8286C182.746 49.6976 188.439 48.9164 193.988 47.5002C195.506 47.1043 197.175 46.5575 197.853 45.134C190.511 45.5988 183.281 47.1687 176.407 49.7909C175.898 49.9794 175.285 50.4226 175.464 50.9128C183.86 51.4138 192.286 50.7796 200.512 49.0274" stroke="black" stroke-miterlimit="10"/>
<path d="M51.9614 160.002L51.9803 188.462L58.1927 182.24L64.3485 188.387L64.3296 159.993" stroke="black" stroke-linecap="round" stroke-linejoin="round"/>
<path d="M58.1457 161.831C64.4559 161.831 69.5713 156.715 69.5713 150.405C69.5713 144.095 64.4559 138.98 58.1457 138.98C51.8356 138.98 46.7202 144.095 46.7202 150.405C46.7202 156.715 51.8356 161.831 58.1457 161.831Z" stroke="black" stroke-linecap="round" stroke-linejoin="round"/>
<path d="M58.1456 157.975C62.3263 157.975 65.7154 154.586 65.7154 150.405C65.7154 146.225 62.3263 142.835 58.1456 142.835C53.9648 142.835 50.5757 146.225 50.5757 150.405C50.5757 154.586 53.9648 157.975 58.1456 157.975Z" stroke="black" stroke-linecap="round" stroke-linejoin="round"/>
</g>
<defs>
<filter id="filter0_f_44_100" x="212.566" y="0.636185" width="334.629" height="315.906" filterUnits="userSpaceOnUse" color-interpolation-filters="sRGB">
<feFlood flood-opacity="0" result="BackgroundImageFix"/>
<feBlend mode="normal" in="SourceGraphic" in2="BackgroundImageFix" result="shape"/>
<feGaussianBlur stdDeviation="31" result="effect1_foregroundBlur_44_100"/>
</filter>
<clipPath id="clip0_44_100">
<rect width="615.3" height="326.777" fill="white" transform="translate(0 29.8717)"/>
</clipPath>
</defs>
</svg>
